<svg version="1.1" id="Layer_1" xmlns="http://www.w3.org/2000/svg" xmlns:xlink="http://www.w3.org/1999/xlink" x="0px" y="0px"
	 width="100%" viewBox="0 0 1536 396" enable-background="new 0 0 1536 396" xml:space="preserve">
<path fill="#011826" opacity="1.000000" stroke="none" 
	d="
M1106.000000,397.000000 
	C737.380920,397.000000 369.261871,397.000000 1.071396,397.000000 
	C1.071396,265.064697 1.071396,133.129349 1.071396,1.096994 
	C513.000000,1.096994 1025.000000,1.096994 1536.971924,1.096994 
	C1536.971924,133.071579 1536.971924,265.035797 1536.971924,397.000000 
	C1393.462524,397.000000 1249.981323,397.000000 1106.000000,397.000000 
M745.500000,269.000732 
	C760.989136,269.000244 776.495728,269.439056 791.960327,268.823334 
	C800.323059,268.490356 808.889832,267.271851 816.885437,264.862885 
	C840.237122,257.827454 849.020203,231.568542 835.377625,211.222076 
	C830.862915,204.488861 824.366760,200.454529 816.765869,197.614960 
	C817.359009,197.092834 817.685852,196.714981 818.090759,196.461731 
	C832.468140,187.468979 838.737549,170.959549 833.776978,154.441086 
	C829.834778,141.314011 819.347595,128.815201 799.211853,129.264679 
	C775.407166,129.796021 751.581482,129.384384 727.764893,129.399551 
	C725.999573,129.400681 724.234436,129.546921 722.627869,129.618622 
	C722.627869,176.405609 722.627869,222.599487 722.627869,269.000732 
	C730.189758,269.000732 737.344849,269.000732 745.500000,269.000732 
M217.201569,216.700958 
	C217.653275,207.935760 219.094955,199.089279 218.383240,190.419586 
	C215.492523,155.206497 190.035858,131.183899 154.712082,129.981888 
	C138.243301,129.421494 121.750580,129.560822 105.268585,129.396393 
	C101.976067,129.363556 98.682930,129.391663 95.129852,129.391663 
	C95.129852,176.136902 95.129852,222.339905 95.129852,268.140167 
	C117.130600,268.140167 138.971558,269.429962 160.597626,267.824677 
	C189.849686,265.653381 210.368668,246.222275 217.201569,216.700958 
M321.229431,257.276276 
	C337.712128,269.040924 355.991882,272.400818 375.747528,269.007111 
	C412.525543,262.689209 438.815735,225.270813 432.236206,188.561127 
	C424.908905,147.679260 389.675110,123.027283 348.548615,130.007645 
	C314.196716,135.838181 287.897034,170.762375 291.726410,205.331360 
	C294.085663,226.629181 303.622589,243.838608 321.229431,257.276276 
M511.049591,182.500000 
	C511.071442,190.499115 510.305237,198.599152 511.313446,206.471954 
	C512.589966,216.439789 513.900879,226.805313 517.689941,235.968430 
	C526.509338,257.296356 543.715881,268.000671 566.536438,269.898834 
	C583.822327,271.336639 600.122375,268.681091 614.145264,257.650299 
	C629.550781,245.531891 635.762024,228.614914 636.479919,209.913651 
	C637.419006,185.451874 636.997314,160.937820 637.157471,136.446243 
	C637.171448,134.304596 637.159363,132.162796 637.159363,129.712708 
	C623.999023,129.712708 611.269165,129.712708 598.212463,129.712708 
	C598.212463,131.668625 598.212463,133.309326 598.212463,134.950043 
	C598.212402,156.281845 598.262817,177.613831 598.187195,198.945358 
	C598.156982,207.465912 597.450562,215.905594 593.221008,223.605637 
	C589.049744,231.199753 582.958557,235.542603 573.976074,235.584991 
	C564.985168,235.627411 558.363464,231.619629 554.902649,223.639023 
	C552.509338,218.120026 550.474854,211.964584 550.320007,206.040268 
	C549.702209,182.392670 549.882568,158.724197 549.769531,135.063461 
	C549.761169,133.307373 549.768433,131.551224 549.768433,129.725891 
	C536.530151,129.725891 523.943604,129.725891 511.049591,129.725891 
	C511.049591,147.207764 511.049591,164.353882 511.049591,182.500000 
M1224.556519,193.009583 
	C1215.817505,218.188995 1207.078491,243.368408 1198.183350,268.997711 
	C1211.070557,268.997711 1223.222534,269.085602 1235.369019,268.861877 
	C1236.583984,268.839478 1238.416382,267.143829 1238.850830,265.851257 
	C1241.125610,259.082581 1243.118774,252.214890 1245.041870,245.334686 
	C1245.732910,242.862213 1246.925171,241.978653 1249.568481,242.023743 
	C1259.395752,242.191345 1269.229004,242.186493 1279.056396,242.026535 
	C1281.684204,241.983765 1282.857666,242.814743 1283.576904,245.333069 
	C1285.538574,252.200882 1287.679321,259.022644 1289.981445,265.783539 
	C1290.409912,267.041962 1291.904297,268.836487 1292.933472,268.854370 
	C1305.218018,269.067963 1317.507690,268.992157 1330.418091,268.992157 
	C1327.149902,259.530487 1324.072754,250.613144 1320.989746,241.697754 
	C1308.609619,205.897003 1296.183838,170.111893 1283.912598,134.273911 
	C1282.648438,130.581818 1280.971924,129.079605 1276.843384,129.272629 
	C1268.364746,129.669006 1259.847168,129.602173 1251.361084,129.294525 
	C1247.668213,129.160645 1246.185303,130.493652 1245.046875,133.858185 
	C1238.443604,153.373917 1231.605713,172.810303 1224.556519,193.009583 
M990.484863,177.501190 
	C990.484863,172.917435 990.484863,168.333679 990.484863,163.319214 
	C1004.224670,163.319214 1017.141357,163.319214 1030.169312,163.319214 
	C1030.169312,151.812073 1030.169312,140.771225 1030.169312,129.692535 
	C990.551636,129.692535 951.322632,129.692535 911.842041,129.692535 
	C911.842041,141.036072 911.842041,152.072784 911.842041,163.668335 
	C925.253967,163.668335 938.326233,163.668335 951.919983,163.668335 
	C951.919983,199.084335 951.919983,233.943298 951.919983,268.688110 
	C965.032959,268.688110 977.604797,268.688110 990.484802,268.688110 
	C990.484802,238.416916 990.484802,208.458618 990.484863,177.501190 
M1416.535889,129.391205 
	C1412.800781,129.391205 1409.065796,129.391205 1405.367920,129.391205 
	C1405.367920,176.363144 1405.367920,222.442688 1405.367920,268.697449 
	C1418.323608,268.697449 1431.034546,268.697449 1443.747070,268.697449 
	C1443.747070,222.195343 1443.747070,175.996246 1443.747070,129.391220 
	C1434.791992,129.391220 1426.158081,129.391220 1416.535889,129.391205 
M1094.645996,267.903076 
	C1104.864258,268.429199 1115.082397,268.955292 1125.675781,269.500732 
	C1125.675781,257.370331 1125.750977,246.411606 1125.557861,235.457626 
	C1125.538818,234.376816 1123.898682,232.422180 1122.973267,232.399261 
	C1113.697021,232.169571 1104.412964,232.259644 1094.522827,232.259644 
	C1094.522827,244.125259 1094.522827,255.557907 1094.645996,267.903076 
z"/>
<path fill="#E8EFF5" opacity="1.000000" stroke="none" 
	d="
M745.000000,269.000732 
	C737.344849,269.000732 730.189758,269.000732 722.627869,269.000732 
	C722.627869,222.599487 722.627869,176.405609 722.627869,129.618622 
	C724.234436,129.546921 725.999573,129.400681 727.764893,129.399551 
	C751.581482,129.384384 775.407166,129.796021 799.211853,129.264679 
	C819.347595,128.815201 829.834778,141.314011 833.776978,154.441086 
	C838.737549,170.959549 832.468140,187.468979 818.090759,196.461731 
	C817.685852,196.714981 817.359009,197.092834 816.765869,197.614960 
	C824.366760,200.454529 830.862915,204.488861 835.377625,211.222076 
	C849.020203,231.568542 840.237122,257.827454 816.885437,264.862885 
	C808.889832,267.271851 800.323059,268.490356 791.960327,268.823334 
	C776.495728,269.439056 760.989136,269.000244 745.000000,269.000732 
M767.588440,213.922180 
	C765.502014,213.922180 763.415527,213.922180 761.414856,213.922180 
	C761.414856,221.693848 761.414856,228.781128 761.414856,236.098587 
	C771.830261,236.098587 781.976929,236.284241 792.112488,236.028473 
	C798.128662,235.876663 802.020447,231.112015 801.852295,224.981628 
	C801.671082,218.370926 797.676086,214.002823 791.565308,213.941666 
	C783.901428,213.864929 776.236206,213.922546 767.588440,213.922180 
M771.520264,183.326218 
	C777.506226,183.178528 783.531128,183.399078 789.466187,182.770935 
	C794.552307,182.232666 796.822083,178.802582 796.946777,173.204254 
	C797.060974,168.081711 794.651489,163.479141 790.479431,163.268326 
	C780.776733,162.778046 771.032410,163.112106 761.390747,163.112106 
	C761.390747,170.039551 761.390747,176.472458 761.390747,183.326218 
	C764.602295,183.326218 767.566284,183.326218 771.520264,183.326218 
z"/>
<path fill="#E9EFF5" opacity="1.000000" stroke="none" 
	d="
M217.114929,217.110260 
	C210.368668,246.222275 189.849686,265.653381 160.597626,267.824677 
	C138.971558,269.429962 117.130600,268.140167 95.129852,268.140167 
	C95.129852,222.339905 95.129852,176.136902 95.129852,129.391663 
	C98.682930,129.391663 101.976067,129.363556 105.268585,129.396393 
	C121.750580,129.560822 138.243301,129.421494 154.712082,129.981888 
	C190.035858,131.183899 215.492523,155.206497 218.383240,190.419586 
	C219.094955,199.089279 217.653275,207.935760 217.114929,217.110260 
M179.080887,204.580811 
	C181.435120,174.864258 165.314331,159.110611 134.102386,164.202347 
	C134.102386,187.746872 134.102386,211.291397 134.102386,234.801025 
	C162.435715,237.984695 175.679291,228.254990 179.080887,204.580811 
z"/>
<path fill="#E9EFF5" opacity="1.000000" stroke="none" 
	d="
M320.923035,257.090393 
	C303.622589,243.838608 294.085663,226.629181 291.726410,205.331360 
	C287.897034,170.762375 314.196716,135.838181 348.548615,130.007645 
	C389.675110,123.027283 424.908905,147.679260 432.236206,188.561127 
	C438.815735,225.270813 412.525543,262.689209 375.747528,269.007111 
	C355.991882,272.400818 337.712128,269.040924 320.923035,257.090393 
M351.760773,164.975906 
	C348.296448,167.207581 344.365784,168.954254 341.450653,171.757156 
	C330.421661,182.361526 327.788849,202.068314 334.878021,217.772766 
	C343.102448,235.992233 365.247894,241.643936 380.975067,229.404633 
	C389.621704,222.675598 392.831360,213.013931 393.558319,202.673203 
	C395.385712,176.677429 377.653717,158.023285 351.760773,164.975906 
z"/>
<path fill="#E8EEF5" opacity="1.000000" stroke="none" 
	d="
M511.049591,182.000000 
	C511.049591,164.353882 511.049591,147.207764 511.049591,129.725891 
	C523.943604,129.725891 536.530151,129.725891 549.768433,129.725891 
	C549.768433,131.551224 549.761169,133.307373 549.769531,135.063461 
	C549.882568,158.724197 549.702209,182.392670 550.320007,206.040268 
	C550.474854,211.964584 552.509338,218.120026 554.902649,223.639023 
	C558.363464,231.619629 564.985168,235.627411 573.976074,235.584991 
	C582.958557,235.542603 589.049744,231.199753 593.221008,223.605637 
	C597.450562,215.905594 598.156982,207.465912 598.187195,198.945358 
	C598.262817,177.613831 598.212402,156.281845 598.212463,134.950043 
	C598.212463,133.309326 598.212463,131.668625 598.212463,129.712708 
	C611.269165,129.712708 623.999023,129.712708 637.159363,129.712708 
	C637.159363,132.162796 637.171448,134.304596 637.157471,136.446243 
	C636.997314,160.937820 637.419006,185.451874 636.479919,209.913651 
	C635.762024,228.614914 629.550781,245.531891 614.145264,257.650299 
	C600.122375,268.681091 583.822327,271.336639 566.536438,269.898834 
	C543.715881,268.000671 526.509338,257.296356 517.689941,235.968430 
	C513.900879,226.805313 512.589966,216.439789 511.313446,206.471954 
	C510.305237,198.599152 511.071442,190.499115 511.049591,182.000000 
z"/>
<path fill="#E9EFF5" opacity="1.000000" stroke="none" 
	d="
M1224.701904,192.641541 
	C1231.605713,172.810303 1238.443604,153.373917 1245.046875,133.858185 
	C1246.185303,130.493652 1247.668213,129.160645 1251.361084,129.294525 
	C1259.847168,129.602173 1268.364746,129.669006 1276.843384,129.272629 
	C1280.971924,129.079605 1282.648438,130.581818 1283.912598,134.273911 
	C1296.183838,170.111893 1308.609619,205.897003 1320.989746,241.697754 
	C1324.072754,250.613144 1327.149902,259.530487 1330.418091,268.992157 
	C1317.507690,268.992157 1305.218018,269.067963 1292.933472,268.854370 
	C1291.904297,268.836487 1290.409912,267.041962 1289.981445,265.783539 
	C1287.679321,259.022644 1285.538574,252.200882 1283.576904,245.333069 
	C1282.857666,242.814743 1281.684204,241.983765 1279.056396,242.026535 
	C1269.229004,242.186493 1259.395752,242.191345 1249.568481,242.023743 
	C1246.925171,241.978653 1245.732910,242.862213 1245.041870,245.334686 
	C1243.118774,252.214890 1241.125610,259.082581 1238.850830,265.851257 
	C1238.416382,267.143829 1236.583984,268.839478 1235.369019,268.861877 
	C1223.222534,269.085602 1211.070557,268.997711 1198.183350,268.997711 
	C1207.078491,243.368408 1215.817505,218.188995 1224.701904,192.641541 
M1273.333618,206.035477 
	C1270.470947,195.894089 1267.608276,185.752686 1264.414429,174.438034 
	C1260.125366,188.773285 1256.171387,201.988327 1252.113403,215.551361 
	C1260.391235,215.551361 1267.973999,215.551361 1276.066162,215.551361 
	C1275.216675,212.439743 1274.443115,209.606461 1273.333618,206.035477 
z"/>
<path fill="#E8EEF4" opacity="1.000000" stroke="none" 
	d="
M990.484863,178.000763 
	C990.484802,208.458618 990.484802,238.416916 990.484802,268.688110 
	C977.604797,268.688110 965.032959,268.688110 951.919983,268.688110 
	C951.919983,233.943298 951.919983,199.084335 951.919983,163.668335 
	C938.326233,163.668335 925.253967,163.668335 911.842041,163.668335 
	C911.842041,152.072784 911.842041,141.036072 911.842041,129.692535 
	C951.322632,129.692535 990.551636,129.692535 1030.169312,129.692535 
	C1030.169312,140.771225 1030.169312,151.812073 1030.169312,163.319214 
	C1017.141357,163.319214 1004.224670,163.319214 990.484863,163.319214 
	C990.484863,168.333679 990.484863,172.917435 990.484863,178.000763 
z"/>
<path fill="#E9EFF5" opacity="1.000000" stroke="none" 
	d="
M1417.030029,129.391205 
	C1426.158081,129.391220 1434.791992,129.391220 1443.747070,129.391220 
	C1443.747070,175.996246 1443.747070,222.195343 1443.747070,268.697449 
	C1431.034546,268.697449 1418.323608,268.697449 1405.367920,268.697449 
	C1405.367920,222.442688 1405.367920,176.363144 1405.367920,129.391205 
	C1409.065796,129.391205 1412.800781,129.391205 1417.030029,129.391205 
z"/>
<path fill="#E6ECF2" opacity="1.000000" stroke="none" 
	d="
M1094.584473,267.446808 
	C1094.522827,255.557907 1094.522827,244.125259 1094.522827,232.259644 
	C1104.412964,232.259644 1113.697021,232.169571 1122.973267,232.399261 
	C1123.898682,232.422180 1125.538818,234.376816 1125.557861,235.457626 
	C1125.750977,246.411606 1125.675781,257.370331 1125.675781,269.500732 
	C1115.082397,268.955292 1104.864258,268.429199 1094.584473,267.446808 
z"/>
<path fill="#041A28" opacity="1.000000" stroke="none" 
	d="
M768.079956,213.922180 
	C776.236206,213.922546 783.901428,213.864929 791.565308,213.941666 
	C797.676086,214.002823 801.671082,218.370926 801.852295,224.981628 
	C802.020447,231.112015 798.128662,235.876663 792.112488,236.028473 
	C781.976929,236.284241 771.830261,236.098587 761.414856,236.098587 
	C761.414856,228.781128 761.414856,221.693848 761.414856,213.922180 
	C763.415527,213.922180 765.502014,213.922180 768.079956,213.922180 
z"/>
<path fill="#041B29" opacity="1.000000" stroke="none" 
	d="
M771.025269,183.326218 
	C767.566284,183.326218 764.602295,183.326218 761.390747,183.326218 
	C761.390747,176.472458 761.390747,170.039551 761.390747,163.112106 
	C771.032410,163.112106 780.776733,162.778046 790.479431,163.268326 
	C794.651489,163.479141 797.060974,168.081711 796.946777,173.204254 
	C796.822083,178.802582 794.552307,182.232666 789.466187,182.770935 
	C783.531128,183.399078 777.506226,183.178528 771.025269,183.326218 
z"/>
<path fill="#021927" opacity="1.000000" stroke="none" 
	d="
M179.026566,205.010269 
	C175.679291,228.254990 162.435715,237.984695 134.102386,234.801025 
	C134.102386,211.291397 134.102386,187.746872 134.102753,164.201752 
	C165.314331,159.110611 181.435120,174.864258 179.026566,205.010269 
z"/>
<path fill="#031A28" opacity="1.000000" stroke="none" 
	d="
M352.150726,164.871857 
	C377.653717,158.023285 395.385712,176.677429 393.558319,202.673203 
	C392.831360,213.013931 389.621704,222.675598 380.975067,229.404633 
	C365.247894,241.643936 343.102448,235.992233 334.878021,217.772766 
	C327.788849,202.068314 330.421661,182.361526 341.450653,171.757156 
	C344.365784,168.954254 348.296448,167.207581 352.150726,164.871857 
z"/>
<path fill="#0B212F" opacity="1.000000" stroke="none" 
	d="
M1273.501587,206.404327 
	C1274.443115,209.606461 1275.216675,212.439743 1276.066162,215.551361 
	C1267.973999,215.551361 1260.391235,215.551361 1252.113403,215.551361 
	C1256.171387,201.988327 1260.125366,188.773285 1264.414429,174.438034 
	C1267.608276,185.752686 1270.470947,195.894089 1273.501587,206.404327 
z"/>
</svg>