<svg version="1.1" id="Layer_1" xmlns="http://www.w3.org/2000/svg" xmlns:xlink="http://www.w3.org/1999/xlink" x="0px" y="0px"
	 width="100%" viewBox="0 0 1080 1080" enable-background="new 0 0 1080 1080" xml:space="preserve">
<path fill="#011826" opacity="1.000000" stroke="none" 
	d="
M716.000000,1081.000000 
	C477.360809,1081.000000 239.221634,1081.000000 1.041225,1081.000000 
	C1.041225,721.069031 1.041225,361.138062 1.041225,1.103538 
	C360.889404,1.103538 720.778870,1.103538 1080.834229,1.103538 
	C1080.834229,360.999939 1080.834229,720.999939 1080.834229,1081.000000 
	C959.470947,1081.000000 837.985474,1081.000000 716.000000,1081.000000 
M814.500000,294.998810 
	C777.842346,294.998810 741.184509,295.055237 704.527344,294.920044 
	C700.421692,294.904907 697.489807,295.938873 694.499207,298.953491 
	C663.167053,330.537537 631.707214,361.995728 600.124512,393.329346 
	C597.044067,396.385498 595.882629,399.301147 595.891357,403.631317 
	C596.040955,477.946411 595.923096,552.262024 596.037170,626.577209 
	C596.080994,655.133057 616.096252,674.270874 643.408386,674.063782 
	C690.894226,673.703552 738.384949,674.008301 785.872864,673.837097 
	C788.337769,673.828186 791.424744,672.612549 793.164124,670.890320 
	C825.369873,639.001953 857.392395,606.928528 889.540039,574.981201 
	C891.847412,572.688171 892.819153,570.414734 892.806396,567.152283 
	C892.690369,537.493164 892.738525,507.833496 892.738403,478.173981 
	C892.738159,432.684967 892.789185,387.195831 892.718323,341.706940 
	C892.674500,313.577759 874.061279,295.056488 845.992615,295.001984 
	C835.828491,294.982239 825.664185,294.998810 814.500000,294.998810 
M435.500000,673.089722 
	C477.273926,673.089722 519.047852,673.089722 561.038574,673.089722 
	C561.038574,548.511658 561.038574,424.460693 561.038574,300.304688 
	C436.614624,300.304688 312.413788,300.304688 188.306564,300.304688 
	C188.306564,424.676331 188.306564,548.741211 188.306564,673.089722 
	C270.576477,673.089722 352.538239,673.089722 435.500000,673.089722 
M675.163086,294.991302 
	C663.517151,294.991302 651.871155,294.956970 640.225342,294.998932 
	C620.328552,295.070679 603.360291,307.800140 598.142456,326.969330 
	C596.811340,331.859375 596.201111,337.064026 596.085022,342.142975 
	C595.798706,354.671753 595.991272,367.211456 595.991272,379.475128 
	C624.303589,351.187653 652.425537,323.090363 680.549194,294.991394 
	C679.285400,294.991394 677.667358,294.991394 675.163086,294.991302 
M832.783264,648.282837 
	C824.487549,656.534424 816.191772,664.786011 806.941101,673.987488 
	C822.225586,673.987488 835.987061,674.113586 849.745422,673.958923 
	C872.360779,673.704712 891.324280,655.892151 892.400635,633.239502 
	C893.071533,619.120972 892.577698,604.946899 892.567139,590.797729 
	C892.566895,590.434692 892.106934,590.071960 891.666443,589.421143 
	C872.101501,608.978760 852.692261,628.380676 832.783264,648.282837 
M556.725098,756.936523 
	C554.900513,755.427002 553.075928,753.917542 551.145264,752.320312 
	C556.788818,748.065063 558.227478,742.531982 556.505432,736.204224 
	C555.177002,731.322693 551.724365,727.574097 546.794006,727.312439 
	C536.246094,726.752686 525.647827,727.140991 515.106995,727.140991 
	C515.106995,744.773682 515.106995,761.864014 515.106995,779.337036 
	C517.129639,779.337036 518.938416,779.348694 520.747131,779.335144 
	C529.064270,779.272827 537.421448,779.694702 545.688965,779.020264 
	C557.777466,778.034119 562.711914,768.328735 556.725098,756.936523 
M316.152618,775.813171 
	C332.267120,766.608704 331.566010,737.344910 313.984589,729.781860 
	C303.373413,725.217224 292.211578,727.406921 281.368317,727.125061 
	C281.368317,744.876343 281.368317,761.932617 281.368317,779.338318 
	C287.134674,779.338318 292.648834,779.760925 298.067902,779.223877 
	C303.912201,778.644714 309.667511,777.167358 316.152618,775.813171 
M362.073090,734.570374 
	C354.713806,742.577637 352.517395,751.726440 355.865540,762.162659 
	C359.225281,772.635010 369.585449,780.008850 380.942474,779.918030 
	C392.533356,779.825378 403.034882,772.177063 406.118866,761.581970 
	C409.592010,749.649902 405.265472,737.527100 395.217224,731.035645 
	C385.023529,724.450317 372.841095,725.597839 362.073090,734.570374 
M450.856873,743.496887 
	C450.856873,738.069824 450.856873,732.642761 450.856873,727.307495 
	C445.533020,727.307495 440.942047,727.307495 435.915253,727.307495 
	C435.915253,729.562073 435.898102,731.523376 435.918243,733.484253 
	C436.007111,742.140259 435.533173,750.849976 436.339172,759.439209 
	C437.497925,771.787720 445.749359,779.059753 458.151276,779.882996 
	C470.126434,780.677856 480.387543,774.605896 481.847870,763.254028 
	C483.369476,751.426086 482.187347,739.250305 482.187347,727.304077 
	C477.924225,727.304077 473.336182,727.304077 468.342377,727.304077 
	C468.342377,735.722595 468.449188,743.853027 468.286011,751.977966 
	C468.226868,754.922119 467.815857,757.933838 467.038727,760.770447 
	C466.019318,764.491333 463.072540,767.342285 459.420380,766.534729 
	C456.696228,765.932434 453.099091,763.183594 452.419495,760.698975 
	C451.008514,755.540405 451.278107,749.922119 450.856873,743.496887 
M740.685852,776.875427 
	C736.192017,763.864990 731.717407,750.847778 727.198608,737.846069 
	C723.258545,726.509705 723.236450,726.515625 711.179016,727.046936 
	C710.864746,727.060791 710.556641,727.215149 709.780334,727.436890 
	C703.902771,744.340942 697.935669,761.502625 691.732544,779.343079 
	C695.509705,779.343079 698.645020,779.089783 701.721741,779.406677 
	C705.626221,779.808838 708.053284,778.845581 708.511353,774.517578 
	C708.931396,770.549622 711.148438,769.223755 715.294800,769.427612 
	C723.192810,769.815979 723.199097,769.530273 725.554932,777.146606 
	C725.787415,777.898132 726.191589,778.596619 726.525391,779.340454 
	C730.726135,779.340454 734.721558,779.426880 738.706848,779.264587 
	C739.467407,779.233582 740.187988,778.220825 740.685852,776.875427 
M614.995728,773.436523 
	C614.995728,762.495972 614.995728,751.555420 614.995728,740.033142 
	C620.266296,740.033142 624.985229,740.033142 629.588684,740.033142 
	C629.588684,735.364990 629.588684,731.299255 629.588684,727.305969 
	C614.653564,727.305969 600.063293,727.305969 585.371948,727.305969 
	C585.371948,731.673401 585.371948,735.747498 585.371948,740.364319 
	C590.379700,740.364319 595.117737,740.364319 600.328247,740.364319 
	C600.328247,753.646484 600.328247,766.387817 600.328247,779.077637 
	C605.421143,779.077637 610.019958,779.077637 614.995728,779.077637 
	C614.995728,777.369385 614.995728,775.896729 614.995728,773.436523 
M776.475769,727.009216 
	C774.046570,727.009216 771.617371,727.009216 769.161499,727.009216 
	C769.161499,744.754700 769.161499,761.839355 769.161499,779.009521 
	C774.131470,779.009521 778.868835,779.009521 783.569458,779.009521 
	C783.569458,761.587036 783.569458,744.503174 783.569458,727.009216 
	C781.356995,727.009216 779.393433,727.009216 776.475769,727.009216 
M665.156616,777.121887 
	C665.156616,773.342468 665.156616,769.563049 665.156616,765.605164 
	C660.933594,765.605164 657.234253,765.605164 653.352661,765.605164 
	C653.352661,770.249268 653.352661,774.523315 653.352661,779.890259 
	C657.444885,779.245667 661.284363,778.640930 665.156616,777.121887 
z"/>
<path fill="#EAF0F6" opacity="1.000000" stroke="none" 
	d="
M815.000000,294.998810 
	C825.664185,294.998810 835.828491,294.982239 845.992615,295.001984 
	C874.061279,295.056488 892.674500,313.577759 892.718323,341.706940 
	C892.789185,387.195831 892.738159,432.684967 892.738403,478.173981 
	C892.738525,507.833496 892.690369,537.493164 892.806396,567.152283 
	C892.819153,570.414734 891.847412,572.688171 889.540039,574.981201 
	C857.392395,606.928528 825.369873,639.001953 793.164124,670.890320 
	C791.424744,672.612549 788.337769,673.828186 785.872864,673.837097 
	C738.384949,674.008301 690.894226,673.703552 643.408386,674.063782 
	C616.096252,674.270874 596.080994,655.133057 596.037170,626.577209 
	C595.923096,552.262024 596.040955,477.946411 595.891357,403.631317 
	C595.882629,399.301147 597.044067,396.385498 600.124512,393.329346 
	C631.707214,361.995728 663.167053,330.537537 694.499207,298.953491 
	C697.489807,295.938873 700.421692,294.904907 704.527344,294.920044 
	C741.184509,295.055237 777.842346,294.998810 815.000000,294.998810 
M735.237854,501.801208 
	C738.420288,501.303131 740.045837,502.516327 740.723511,505.827637 
	C741.519958,509.719025 742.825806,513.526917 744.191406,517.268555 
	C744.604065,518.398987 745.906921,519.951355 746.875793,520.006165 
	C751.798828,520.284607 756.746033,520.134521 762.269897,520.134521 
	C754.811035,495.987671 747.564026,472.526459 740.281006,448.948792 
	C734.408447,448.948792 728.920593,449.169464 723.461609,448.867859 
	C720.067749,448.680328 718.548584,449.702820 717.550232,453.071564 
	C711.312012,474.121460 704.819458,495.096008 698.435608,516.102905 
	C698.075745,517.286926 697.932190,518.536621 697.609802,520.146179 
	C702.027100,520.146179 706.009827,519.966614 709.967346,520.204834 
	C712.965759,520.385315 714.399719,519.442261 715.119812,516.391663 
	C716.254883,511.582275 716.563721,505.079987 719.763367,502.674713 
	C722.998352,500.242920 729.323914,501.922577 735.237854,501.801208 
M787.005920,466.501343 
	C787.005920,460.751129 787.005920,455.000885 787.005920,449.207214 
	C781.234497,449.207214 776.153015,449.207214 770.911621,449.207214 
	C770.911621,472.871735 770.911621,496.279877 770.911621,519.739380 
	C776.328308,519.739380 781.533264,519.739380 787.005920,519.739380 
	C787.005920,502.058228 787.005920,484.779480 787.005920,466.501343 
z"/>
<path fill="#EAF0F6" opacity="1.000000" stroke="none" 
	d="
M435.000000,673.089722 
	C352.538239,673.089722 270.576477,673.089722 188.306564,673.089722 
	C188.306564,548.741211 188.306564,424.676331 188.306564,300.304688 
	C312.413788,300.304688 436.614624,300.304688 561.038574,300.304688 
	C561.038574,424.460693 561.038574,548.511658 561.038574,673.089722 
	C519.047852,673.089722 477.273926,673.089722 435.000000,673.089722 
M480.300354,584.783569 
	C485.833313,576.290161 492.395630,568.287781 496.721954,559.218750 
	C515.952209,518.907227 517.755066,477.156281 504.812744,434.699280 
	C497.039276,409.198639 482.990356,387.704773 461.819611,371.191132 
	C436.414154,351.374298 407.414612,341.062286 375.339172,340.532745 
	C334.696259,339.861755 294.038025,340.117065 253.386353,339.998169 
	C252.947800,339.996887 252.508255,340.335938 252.114716,340.497437 
	C252.114716,438.288666 252.114716,535.967346 252.114716,633.989807 
	C254.166733,633.989807 255.806595,633.989868 257.446472,633.989807 
	C291.437439,633.989746 325.429108,634.112793 359.418884,633.912170 
	C369.212311,633.854370 379.057220,633.352173 388.780457,632.214905 
	C424.940430,627.985596 455.660400,612.950562 480.300354,584.783569 
z"/>
<path fill="#E7EDF3" opacity="1.000000" stroke="none" 
	d="
M675.606201,294.991333 
	C677.667358,294.991394 679.285400,294.991394 680.549194,294.991394 
	C652.425537,323.090363 624.303589,351.187653 595.991272,379.475128 
	C595.991272,367.211456 595.798706,354.671753 596.085022,342.142975 
	C596.201111,337.064026 596.811340,331.859375 598.142456,326.969330 
	C603.360291,307.800140 620.328552,295.070679 640.225342,294.998932 
	C651.871155,294.956970 663.517151,294.991302 675.606201,294.991333 
z"/>
<path fill="#E8EEF4" opacity="1.000000" stroke="none" 
	d="
M833.033203,648.032715 
	C852.692261,628.380676 872.101501,608.978760 891.666443,589.421143 
	C892.106934,590.071960 892.566895,590.434692 892.567139,590.797729 
	C892.577698,604.946899 893.071533,619.120972 892.400635,633.239502 
	C891.324280,655.892151 872.360779,673.704712 849.745422,673.958923 
	C835.987061,674.113586 822.225586,673.987488 806.941101,673.987488 
	C816.191772,664.786011 824.487549,656.534424 833.033203,648.032715 
z"/>
<path fill="#E8EEF4" opacity="1.000000" stroke="none" 
	d="
M556.928406,757.242065 
	C562.711914,768.328735 557.777466,778.034119 545.688965,779.020264 
	C537.421448,779.694702 529.064270,779.272827 520.747131,779.335144 
	C518.938416,779.348694 517.129639,779.337036 515.106995,779.337036 
	C515.106995,761.864014 515.106995,744.773682 515.106995,727.140991 
	C525.647827,727.140991 536.246094,726.752686 546.794006,727.312439 
	C551.724365,727.574097 555.177002,731.322693 556.505432,736.204224 
	C558.227478,742.531982 556.788818,748.065063 551.145264,752.320312 
	C553.075928,753.917542 554.900513,755.427002 556.928406,757.242065 
M543.736389,760.886597 
	C539.278259,759.977722 534.820129,759.068787 530.089294,758.104248 
	C530.089294,761.857910 530.089294,764.239624 530.089294,766.953552 
	C533.367554,766.953552 536.328491,766.938171 539.289246,766.957581 
	C542.865906,766.981079 544.517639,765.297058 543.736389,760.886597 
M529.773315,744.489929 
	C530.418335,745.373901 530.982178,746.929443 531.723267,747.019043 
	C534.181641,747.316345 536.807861,747.493469 539.159607,746.893250 
	C540.417664,746.572205 542.088623,744.518738 542.026672,743.327454 
	C541.965942,742.160461 540.112183,740.541504 538.739502,740.122131 
	C536.908813,739.562927 534.761230,740.153320 532.788452,739.921265 
	C529.750732,739.563782 529.541565,741.292786 529.773315,744.489929 
z"/>
<path fill="#E7EEF4" opacity="1.000000" stroke="none" 
	d="
M315.807129,775.947510 
	C309.667511,777.167358 303.912201,778.644714 298.067902,779.223877 
	C292.648834,779.760925 287.134674,779.338318 281.368317,779.338318 
	C281.368317,761.932617 281.368317,744.876343 281.368317,727.125061 
	C292.211578,727.406921 303.373413,725.217224 313.984589,729.781860 
	C331.566010,737.344910 332.267120,766.608704 315.807129,775.947510 
M304.218018,766.035034 
	C311.547211,762.759033 314.307343,756.122375 311.763855,747.891357 
	C309.886932,741.817505 304.928375,739.491028 296.284454,740.721741 
	C296.284454,749.239197 296.284454,757.776184 296.284454,766.764465 
	C298.873108,766.546570 301.147064,766.355164 304.218018,766.035034 
z"/>
<path fill="#E7EDF3" opacity="1.000000" stroke="none" 
	d="
M362.344727,734.338440 
	C372.841095,725.597839 385.023529,724.450317 395.217224,731.035645 
	C405.265472,737.527100 409.592010,749.649902 406.118866,761.581970 
	C403.034882,772.177063 392.533356,779.825378 380.942474,779.918030 
	C369.585449,780.008850 359.225281,772.635010 355.865540,762.162659 
	C352.517395,751.726440 354.713806,742.577637 362.344727,734.338440 
M380.525665,740.237610 
	C375.520966,740.507507 371.994354,742.943298 370.514832,747.729126 
	C368.826691,753.189636 368.892059,758.621521 372.939453,763.160522 
	C377.221191,767.962524 384.460358,767.949280 388.758209,763.239868 
	C392.748596,758.867371 392.883606,753.578918 391.461029,748.282349 
	C390.119171,743.286316 386.530060,740.614319 380.525665,740.237610 
z"/>
<path fill="#E5ECF2" opacity="1.000000" stroke="none" 
	d="
M450.856842,743.994873 
	C451.278107,749.922119 451.008514,755.540405 452.419495,760.698975 
	C453.099091,763.183594 456.696228,765.932434 459.420380,766.534729 
	C463.072540,767.342285 466.019318,764.491333 467.038727,760.770447 
	C467.815857,757.933838 468.226868,754.922119 468.286011,751.977966 
	C468.449188,743.853027 468.342377,735.722595 468.342377,727.304077 
	C473.336182,727.304077 477.924225,727.304077 482.187347,727.304077 
	C482.187347,739.250305 483.369476,751.426086 481.847870,763.254028 
	C480.387543,774.605896 470.126434,780.677856 458.151276,779.882996 
	C445.749359,779.059753 437.497925,771.787720 436.339172,759.439209 
	C435.533173,750.849976 436.007111,742.140259 435.918243,733.484253 
	C435.898102,731.523376 435.915253,729.562073 435.915253,727.307495 
	C440.942047,727.307495 445.533020,727.307495 450.856873,727.307495 
	C450.856873,732.642761 450.856873,738.069824 450.856842,743.994873 
z"/>
<path fill="#E6EDF3" opacity="1.000000" stroke="none" 
	d="
M740.806396,777.268188 
	C740.187988,778.220825 739.467407,779.233582 738.706848,779.264587 
	C734.721558,779.426880 730.726135,779.340454 726.525391,779.340454 
	C726.191589,778.596619 725.787415,777.898132 725.554932,777.146606 
	C723.199097,769.530273 723.192810,769.815979 715.294800,769.427612 
	C711.148438,769.223755 708.931396,770.549622 708.511353,774.517578 
	C708.053284,778.845581 705.626221,779.808838 701.721741,779.406677 
	C698.645020,779.089783 695.509705,779.343079 691.732544,779.343079 
	C697.935669,761.502625 703.902771,744.340942 709.780334,727.436890 
	C710.556641,727.215149 710.864746,727.060791 711.179016,727.046936 
	C723.236450,726.515625 723.258545,726.509705 727.198608,737.846069 
	C731.717407,750.847778 736.192017,763.864990 740.806396,777.268188 
M719.573425,755.218994 
	C718.696228,752.280579 717.819092,749.342163 716.605347,745.276184 
	C715.037720,750.525879 713.835571,754.551758 712.469482,759.126770 
	C714.714722,759.126770 716.337402,759.021484 717.941345,759.150024 
	C720.750793,759.375183 720.227112,757.704773 719.573425,755.218994 
z"/>
<path fill="#E9EFF5" opacity="1.000000" stroke="none" 
	d="
M614.995728,773.930298 
	C614.995728,775.896729 614.995728,777.369385 614.995728,779.077637 
	C610.019958,779.077637 605.421143,779.077637 600.328247,779.077637 
	C600.328247,766.387817 600.328247,753.646484 600.328247,740.364319 
	C595.117737,740.364319 590.379700,740.364319 585.371948,740.364319 
	C585.371948,735.747498 585.371948,731.673401 585.371948,727.305969 
	C600.063293,727.305969 614.653564,727.305969 629.588684,727.305969 
	C629.588684,731.299255 629.588684,735.364990 629.588684,740.033142 
	C624.985229,740.033142 620.266296,740.033142 614.995728,740.033142 
	C614.995728,751.555420 614.995728,762.495972 614.995728,773.930298 
z"/>
<path fill="#E5ECF2" opacity="1.000000" stroke="none" 
	d="
M776.952820,727.009216 
	C779.393433,727.009216 781.356995,727.009216 783.569458,727.009216 
	C783.569458,744.503174 783.569458,761.587036 783.569458,779.009521 
	C778.868835,779.009521 774.131470,779.009521 769.161499,779.009521 
	C769.161499,761.839355 769.161499,744.754700 769.161499,727.009216 
	C771.617371,727.009216 774.046570,727.009216 776.952820,727.009216 
z"/>
<path fill="#E0E7ED" opacity="1.000000" stroke="none" 
	d="
M665.140259,777.578979 
	C661.284363,778.640930 657.444885,779.245667 653.352661,779.890259 
	C653.352661,774.523315 653.352661,770.249268 653.352661,765.605164 
	C657.234253,765.605164 660.933594,765.605164 665.156616,765.605164 
	C665.156616,769.563049 665.156616,773.342468 665.140259,777.578979 
z"/>
<path fill="#081E2C" opacity="1.000000" stroke="none" 
	d="
M734.766724,501.801208 
	C729.323914,501.922577 722.998352,500.242920 719.763367,502.674713 
	C716.563721,505.079987 716.254883,511.582275 715.119812,516.391663 
	C714.399719,519.442261 712.965759,520.385315 709.967346,520.204834 
	C706.009827,519.966614 702.027100,520.146179 697.609802,520.146179 
	C697.932190,518.536621 698.075745,517.286926 698.435608,516.102905 
	C704.819458,495.096008 711.312012,474.121460 717.550232,453.071564 
	C718.548584,449.702820 720.067749,448.680328 723.461609,448.867859 
	C728.920593,449.169464 734.408447,448.948792 740.281006,448.948792 
	C747.564026,472.526459 754.811035,495.987671 762.269897,520.134521 
	C756.746033,520.134521 751.798828,520.284607 746.875793,520.006165 
	C745.906921,519.951355 744.604065,518.398987 744.191406,517.268555 
	C742.825806,513.526917 741.519958,509.719025 740.723511,505.827637 
	C740.045837,502.516327 738.420288,501.303131 734.766724,501.801208 
M722.106140,486.354919 
	C722.001709,487.418976 721.897217,488.483063 721.802246,489.450836 
	C727.051331,489.450836 731.913696,489.450836 737.142273,489.450836 
	C734.458862,480.262146 731.906372,471.521820 728.981995,461.507996 
	C726.484497,470.531555 724.398987,478.066528 722.106140,486.354919 
z"/>
<path fill="#071D2B" opacity="1.000000" stroke="none" 
	d="
M787.005920,467.001038 
	C787.005920,484.779480 787.005920,502.058228 787.005920,519.739380 
	C781.533264,519.739380 776.328308,519.739380 770.911621,519.739380 
	C770.911621,496.279877 770.911621,472.871735 770.911621,449.207214 
	C776.153015,449.207214 781.234497,449.207214 787.005920,449.207214 
	C787.005920,455.000885 787.005920,460.751129 787.005920,467.001038 
z"/>
<path fill="#021927" opacity="1.000000" stroke="none" 
	d="
M480.057526,585.042542 
	C455.660400,612.950562 424.940430,627.985596 388.780457,632.214905 
	C379.057220,633.352173 369.212311,633.854370 359.418884,633.912170 
	C325.429108,634.112793 291.437439,633.989746 257.446472,633.989807 
	C255.806595,633.989868 254.166733,633.989807 252.114716,633.989807 
	C252.114716,535.967346 252.114716,438.288666 252.114716,340.497437 
	C252.508255,340.335938 252.947800,339.996887 253.386353,339.998169 
	C294.038025,340.117065 334.696259,339.861755 375.339172,340.532745 
	C407.414612,341.062286 436.414154,351.374298 461.819611,371.191132 
	C482.990356,387.704773 497.039276,409.198639 504.812744,434.699280 
	C517.755066,477.156281 515.952209,518.907227 496.721954,559.218750 
	C492.395630,568.287781 485.833313,576.290161 480.057526,585.042542 
M430.312836,493.967682 
	C429.530273,483.575256 429.595428,473.034180 427.803772,462.818726 
	C422.737518,433.932373 398.407013,410.569336 367.801361,410.647827 
	C357.305695,410.674744 346.807037,410.634064 336.315033,410.393951 
	C332.815369,410.313843 332.160919,411.876526 332.164520,414.912811 
	C332.221252,462.902588 332.226135,510.892487 332.155457,558.882263 
	C332.150574,562.189270 332.929535,563.695007 336.625793,563.604797 
	C347.783844,563.332458 358.958801,563.648010 370.110962,563.263550 
	C389.455597,562.596558 404.364075,553.239868 415.824768,538.259277 
	C425.541046,525.558899 429.560852,510.722015 430.312836,493.967682 
z"/>
<path fill="#081E2C" opacity="1.000000" stroke="none" 
	d="
M543.890747,761.284973 
	C544.517639,765.297058 542.865906,766.981079 539.289246,766.957581 
	C536.328491,766.938171 533.367554,766.953552 530.089294,766.953552 
	C530.089294,764.239624 530.089294,761.857910 530.089294,758.104248 
	C534.820129,759.068787 539.278259,759.977722 543.890747,761.284973 
z"/>
<path fill="#071D2B" opacity="1.000000" stroke="none" 
	d="
M529.772217,744.006653 
	C529.541565,741.292786 529.750732,739.563782 532.788452,739.921265 
	C534.761230,740.153320 536.908813,739.562927 538.739502,740.122131 
	C540.112183,740.541504 541.965942,742.160461 542.026672,743.327454 
	C542.088623,744.518738 540.417664,746.572205 539.159607,746.893250 
	C536.807861,747.493469 534.181641,747.316345 531.723267,747.019043 
	C530.982178,746.929443 530.418335,745.373901 529.772217,744.006653 
z"/>
<path fill="#071D2B" opacity="1.000000" stroke="none" 
	d="
M303.819519,766.099365 
	C301.147064,766.355164 298.873108,766.546570 296.284454,766.764465 
	C296.284454,757.776184 296.284454,749.239197 296.284454,740.721741 
	C304.928375,739.491028 309.886932,741.817505 311.763855,747.891357 
	C314.307343,756.122375 311.547211,762.759033 303.819519,766.099365 
z"/>
<path fill="#071D2B" opacity="1.000000" stroke="none" 
	d="
M380.920959,740.242554 
	C386.530060,740.614319 390.119171,743.286316 391.461029,748.282349 
	C392.883606,753.578918 392.748596,758.867371 388.758209,763.239868 
	C384.460358,767.949280 377.221191,767.962524 372.939453,763.160522 
	C368.892059,758.621521 368.826691,753.189636 370.514832,747.729126 
	C371.994354,742.943298 375.520966,740.507507 380.920959,740.242554 
z"/>
<path fill="#081E2C" opacity="1.000000" stroke="none" 
	d="
M719.702698,755.634583 
	C720.227112,757.704773 720.750793,759.375183 717.941345,759.150024 
	C716.337402,759.021484 714.714722,759.126770 712.469482,759.126770 
	C713.835571,754.551758 715.037720,750.525879 716.605347,745.276184 
	C717.819092,749.342163 718.696228,752.280579 719.702698,755.634583 
z"/>
<path fill="#D8E0E7" opacity="1.000000" stroke="none" 
	d="
M722.209839,485.978210 
	C724.398987,478.066528 726.484497,470.531555 728.981995,461.507996 
	C731.906372,471.521820 734.458862,480.262146 737.142273,489.450836 
	C731.913696,489.450836 727.051331,489.450836 721.802246,489.450836 
	C721.897217,488.483063 722.001709,487.418976 722.209839,485.978210 
z"/>
<path fill="#E9EFF5" opacity="1.000000" stroke="none" 
	d="
M430.258667,494.427399 
	C429.560852,510.722015 425.541046,525.558899 415.824768,538.259277 
	C404.364075,553.239868 389.455597,562.596558 370.110962,563.263550 
	C358.958801,563.648010 347.783844,563.332458 336.625793,563.604797 
	C332.929535,563.695007 332.150574,562.189270 332.155457,558.882263 
	C332.226135,510.892487 332.221252,462.902588 332.164520,414.912811 
	C332.160919,411.876526 332.815369,410.313843 336.315033,410.393951 
	C346.807037,410.634064 357.305695,410.674744 367.801361,410.647827 
	C398.407013,410.569336 422.737518,433.932373 427.803772,462.818726 
	C429.595428,473.034180 429.530273,483.575256 430.258667,494.427399 
z"/>
</svg>